<svg xmlns="http://www.w3.org/2000/svg" version="1.1" xmlns:xlink="http://www.w3.org/1999/xlink" xmlns:svgjs="http://svgjs.com/svgjs" width="1440" height="560" preserveAspectRatio="none" viewBox="0 0 1440 560"><g mask="url(&quot;#SvgjsMask1002&quot;)" fill="none"><rect width="1440" height="560" x="0" y="0" fill="rgba(21, 21, 33, 1)"></rect><path d="M0,413.522C85.916,432.781,179.63,441.349,258.553,402.316C340.702,361.687,410.126,286.814,434.711,198.526C458.317,113.752,395.55,31.979,386.038,-55.504C376.043,-147.429,440.739,-259.641,377.556,-327.154C313.741,-395.342,197.922,-352.649,104.599,-356.23C34.451,-358.922,-32.658,-359.487,-101.458,-345.536C-176.289,-330.362,-254.08,-319.668,-313.314,-271.488C-378.425,-218.528,-429.058,-146.242,-447.216,-64.3C-466.062,20.746,-465.227,118.225,-415.527,189.765C-367.312,259.168,-267.843,260.93,-193.438,300.996C-126.401,337.094,-74.294,396.868,0,413.522" fill="#11111a"></path><path d="M1440 1024.108C1531.222 1027.508 1627.321 1020.233 1702.462 968.399 1776.6779999999999 917.203 1812.291 828.962 1844.8 744.866 1875.725 664.866 1904.863 579.462 1885.0720000000001 496.008 1865.935 415.313 1786.047 369.134 1739.4279999999999 300.544 1684.687 220.005 1681.262 83.94099999999997 1587.3899999999999 58.035000000000025 1493.066 32.004999999999995 1419.678 147.041 1330.6970000000001 187.748 1257.721 221.13299999999998 1176.751 228.481 1111.798 275.611 1033.65 332.315 938.981 390.534 920.592 485.32 902.159 580.334 970.78 668.389 1019.356 752.102 1063.864 828.8050000000001 1115.35 901.137 1189.818 949.2909999999999 1264.422 997.533 1351.219 1020.799 1440 1024.108" fill="#191928"></path></g><defs><mask id="SvgjsMask1002"><rect width="1440" height="560" fill="#ffffff"></rect></mask></defs></svg>