<svg xmlns="http://www.w3.org/2000/svg" version="1.1" xmlns:xlink="http://www.w3.org/1999/xlink" xmlns:svgjs="http://svgjs.com/svgjs" width="1440" height="560" preserveAspectRatio="none" viewBox="0 0 1440 560"><g mask="url(&quot;#SvgjsMask1016&quot;)" fill="none"><rect width="1440" height="560" x="0" y="0" fill="rgba(227, 227, 232, 1)"></rect><path d="M0,471.764C119.047,479.01,240.485,594.388,344.585,536.184C447.196,478.813,427.365,323.662,464.427,212.097C496.931,114.254,557.699,23.804,548.923,-78.923C539.911,-184.41,481.659,-277.382,415.544,-360.071C347.358,-445.35,265.857,-519.533,164.389,-559.857C56.653,-602.672,-61.626,-620.664,-174.588,-594.592C-291.286,-567.658,-423.895,-520.153,-475.634,-412.139C-527.565,-303.724,-418.594,-181.484,-429.8,-61.796C-440.119,48.417,-558.833,136.769,-537.192,245.328C-515.081,356.246,-422.861,451.884,-318.641,495.815C-218.459,538.043,-108.517,465.159,0,471.764" fill="#b1b1bf"></path><path d="M1440 999.829C1540.489 995.143 1641.137 1055.163 1735.0529999999999 1019.111 1835.767 980.45 1905.226 889.905 1963.261 798.965 2028.147 697.29 2125.639 581.32 2087.447 466.911 2047.996 348.731 1877.49 344.275 1783.988 261.933 1708.15 195.14600000000002 1689.337 68.548 1594.738 33.00999999999999 1499.373-2.816000000000031 1395.675 47.668000000000006 1298.979 79.72699999999998 1205.3220000000001 110.779 1104.248 138.63400000000001 1042.95 215.954 982.554 292.137 995.827 398.501 971.616 492.657 943.75 601.028 859.76 703.465 889.886 811.229 920.528 920.838 1019.058 1010.566 1126.718 1047.476 1228.703 1082.44 1332.305 1004.851 1440 999.829" fill="#ffffff"></path></g><defs><mask id="SvgjsMask1016"><rect width="1440" height="560" fill="#ffffff"></rect></mask></defs></svg>